<svg width="64" height="64" viewBox="0 0 64 64" fill="none" xmlns="http://www.w3.org/2000/svg">
  <title>Peregrine</title>
  <path fill-rule="evenodd" clip-rule="evenodd" d="M32 64C49.6731 64 64 49.6731 64 32C64 14.3269 49.6731 0 32 0C14.3269 0 0 14.3269 0 32C0 49.6731 14.3269 64 32 64ZM19.3079 57.3098C19.8256 53.3237 21.2817 44.5531 24.3482 41.5518C28.3664 37.6192 33.8514 37.2536 33.8514 37.2536C34.8575 37.6108 35.8041 37.5682 36.7394 37.2299C39.4504 37.283 42.8599 37.5337 47.1615 38.0718C47.875 38.1579 48.3756 38.0805 49.9518 37.0887C51.0831 38.6388 51.7465 40.6461 51.9331 43.2334C52.1418 42.4315 52.3575 41.6426 52.5693 40.8683L52.5699 40.8661L52.5702 40.8651C54.958 32.1336 56.8371 25.2628 42.39 22.6174C41.5269 21.6869 40.2981 20.9004 37.9951 21.358C34.9538 13.0462 28.5538 9.23077 13.8593 10.268C18.7718 6.1629 25.0974 3.69231 32 3.69231C47.6339 3.69231 60.3077 16.3661 60.3077 32C60.3077 47.6339 47.6339 60.3077 32 60.3077C27.603 60.3077 23.4401 59.3052 19.7274 57.5162C19.5869 57.4485 19.4471 57.3797 19.3079 57.3098Z" fill="white"/>
</svg>
